<svg id="Layer_3" xmlns="http://www.w3.org/2000/svg" width="201" height="36" viewBox="0 0 600.5 107.1"><style>.st0{fill:#ffffff;} .st1{fill:#ffffff;}</style><path class="st0" d="M65.6 53.5L107.1 0 53.5 41.5 0 0l41.5 53.5L0 107.1l53.5-41.5 53.6 41.5z"/><path class="st1" d="M82.4 53.5c0 2.8-.4 5.6-1.2 8.3l2.6 3.4c1.4-3.8 2.2-7.7 2.2-11.7s-.7-7.9-2.2-11.7l-2.6 3.4c.8 2.8 1.2 5.5 1.2 8.3zM16.3 32.8c-3.6 6.4-5.4 13.6-5.4 20.8s1.8 14.3 5.4 20.8l2.4-3.1c-2.8-5.5-4.2-11.6-4.2-17.6 0-6.1 1.4-12.1 4.2-17.6l-2.4-3.3zM24.7 53.5c0-2.8.4-5.6 1.2-8.3l-2.6-3.4c-1.4 3.8-2.2 7.7-2.2 11.7s.7 7.9 2.2 11.7l2.6-3.4c-.8-2.7-1.2-5.5-1.2-8.3z"/><path class="st1" d="M4.3 53.5c0-9.2 2.6-18.3 7.7-26.4l-2.3-3C3.6 33 .7 43.3.7 53.5c0 10.3 3 20.5 8.9 29.4l2.3-3c-5.1-8-7.6-17.2-7.6-26.4zM102.8 53.5c0 9.2-2.6 18.3-7.6 26.4l2.3 3c5.9-8.9 8.9-19.1 8.9-29.4s-3-20.5-8.9-29.4l-2.3 3c5 8.1 7.6 17.3 7.6 26.4z"/><path class="st1" d="M90.8 74.3c3.6-6.4 5.4-13.6 5.4-20.7 0-7.2-1.8-14.3-5.4-20.7L88.4 36c2.8 5.5 4.2 11.6 4.2 17.6 0 6.1-1.4 12.1-4.2 17.6l2.4 3.1z"/><circle class="st0" cx="53.5" cy="12.7" r="10.4"/><g><path class="st0" d="M135 36.5c0-2.2 1.3-3.6 3.3-3.6s3.3 1.4 3.3 3.6v1.6l.2.2c3-3.8 7.1-5.3 11.2-5.3 6.2 0 14.1 3.9 14.1 15.3v22.4c0 2.2-1.3 3.6-3.3 3.6-2.1 0-3.3-1.4-3.3-3.6v-22c0-7.1-4.9-9.9-9.3-9.9s-9.3 2.9-9.3 9.9v22c0 2.2-1.3 3.6-3.3 3.6s-3.3-1.4-3.3-3.6V36.5h-.3zM208.9 70.9c0 2.4-1.8 3.3-3.1 3.3-1.4 0-3.1-.9-3.1-3.3v-2.8h-.2c-2.9 4.1-6.7 6.1-11 6.1-11.4 0-17.8-9.9-17.8-20.7 0-10.7 6.4-20.7 17.8-20.7 4.6 0 7.9 2 11 5.4h.2v-2.1c0-2.4 1.7-3.3 3.1-3.3 1.3 0 3.1.9 3.1 3.3v34.8zm-17.4-2.5c8.2 0 11.1-8 11.1-14.9 0-6.8-2.9-14.9-11.1-14.9s-11.1 8-11.1 14.9 2.9 14.9 11.1 14.9zM214.3 38.7c-.5-1.2-.7-2-.7-2.7 0-2 1.4-3.1 3-3.1 2.2 0 3 1.1 3.5 2.6l9.2 27.9h.1l9.2-27.9c.5-1.5 1.3-2.6 3.5-2.6 1.6 0 3 1.1 3 3.1 0 .8-.2 1.5-.7 2.7l-11.6 32.6c-.7 2-1.4 2.9-3.5 2.9s-2.8-.9-3.5-2.9l-11.5-32.6zM253.3 19.2c2.3 0 4.1 1.8 4.1 4.1s-1.8 4.1-4.1 4.1-4.1-1.8-4.1-4.1 1.8-4.1 4.1-4.1zm3.3 51.4c0 2.2-1.3 3.6-3.3 3.6s-3.3-1.4-3.3-3.6V36.5c0-2.2 1.3-3.6 3.3-3.6 2.1 0 3.3 1.4 3.3 3.6v34.1z"/><path class="st1" d="M269.7 56.1c0 6.9 4.4 12.3 11.9 12.3 8.9 0 11.2-5.5 13.7-5.5 1.2 0 2.4 1.1 2.4 3 0 3.3-8.3 8.3-16.2 8.3-12.9 0-18.5-9.9-18.5-20.7 0-10.9 6.8-20.7 18.1-20.7 11 0 17.4 9.9 17.4 19.7 0 2.4-.8 3.6-3.7 3.6h-25.1zm22.2-5c0-5.8-3.3-12.5-10.7-12.5-8.3-.3-11.2 6.3-11.5 12.5h22.2zM314.4 52.3l-10.5-13.7c-.8-1.1-1.1-2-1.1-2.7 0-1.7 1.2-3 2.8-3 1.5 0 2.2.7 2.9 1.5l9.8 13.1 9.8-13.1c.7-.8 1.4-1.5 2.9-1.5 1.6 0 2.8 1.4 2.8 3 0 .7-.3 1.6-1.1 2.7l-10.5 13.7L334.1 68c1.1 1.4 1.4 2.4 1.4 3.2 0 1.7-1.3 3-3 3-1.1 0-2.3-.5-3-1.5l-11.2-15.5-11.2 15.5c-.7 1-1.8 1.5-3 1.5-1.7 0-3-1.4-3-3 0-.8.3-1.7 1.4-3.2l11.9-15.7zM343.5 24.6c0-2.2 1.3-3.6 3.3-3.6 2.1 0 3.3 1.4 3.3 3.6v8.7h2.7c2.2 0 3.3 1.1 3.3 2.9 0 1.8-1.1 2.9-3.3 2.9h-2.7v31.5c0 2.2-1.3 3.6-3.3 3.6s-3.3-1.4-3.3-3.6V39.1h-2.7c-2.2 0-3.3-1.1-3.3-2.9 0-1.8 1.1-2.9 3.3-2.9h2.7v-8.7zM361 36.5c0-2.2 1.3-3.6 3.3-3.6 2.1 0 3.3 1.4 3.3 3.6v3.4h.2c1.5-3.1 5.2-7 9.1-7 2.4 0 3.7 1.5 3.7 3.4s-1.4 3.1-4.2 3.6c-3.9.7-8.8 3.6-8.8 11.5v19.2c0 2.2-1.3 3.6-3.3 3.6s-3.3-1.4-3.3-3.6V36.5zM416.9 70.9c0 2.4-1.8 3.3-3.1 3.3-1.4 0-3.1-.9-3.1-3.3v-2.8h-.1c-2.9 4.1-6.7 6.1-11 6.1-11.4 0-17.8-9.9-17.8-20.7 0-10.7 6.4-20.7 17.8-20.7 4.6 0 7.9 2 11 5.4h.1v-2.1c0-2.4 1.7-3.3 3.1-3.3 1.3 0 3.1.9 3.1 3.3v34.8zm-17.4-2.5c8.2 0 11.1-8 11.1-14.9 0-6.8-2.9-14.9-11.1-14.9s-11.1 8-11.1 14.9 2.9 14.9 11.1 14.9zM438.5 32.9c5.5 0 13.4 3 13.4 7.1 0 1.4-1 2.7-3 2.7-2.9 0-4-4.1-10.4-4.1-3.8 0-7.1 1.7-7.1 5.1 0 7.1 21.6 6.3 21.6 18 0 8.4-7.2 12.5-14.7 12.5-8.5 0-15.2-4.3-15.2-7.7 0-1.8 1.3-3 2.7-3 3 0 5.4 4.9 12.7 4.9 4.9 0 7.8-2.7 7.8-5.5 0-7.9-21.6-7.4-21.6-18.7 0-7.4 7-11.3 13.8-11.3z"/><path class="st0" d="M462.2 66.4c2.1 0 3.9 1.7 3.9 3.9 0 2.1-1.7 3.9-3.9 3.9-2.1 0-3.9-1.7-3.9-3.9 0-2.1 1.7-3.9 3.9-3.9zM489.9 32.9c6.8 0 10.9 2.4 10.9 5.1 0 1.4-1.1 2.8-2.7 2.8-2.6 0-3.6-2.1-8.1-2.1-8.3 0-11.5 8-11.5 14.9 0 6.8 3.3 14.9 11.5 14.9 4.7 0 5.9-2.3 8.1-2.3 1.5 0 2.6 1 2.6 2.8 0 2.5-3.7 5.2-10.6 5.2-12.3 0-18.2-9.9-18.2-20.7-.3-10.7 5.7-20.6 18-20.6zM521.2 32.9c11.4 0 17.8 9.9 17.8 20.7 0 10.7-6.4 20.7-17.8 20.7s-17.8-9.9-17.8-20.7c0-10.8 6.4-20.7 17.8-20.7zm0 35.5c8.2 0 11.1-8 11.1-14.9 0-6.8-2.9-14.9-11.1-14.9s-11.1 8-11.1 14.9 2.9 14.9 11.1 14.9zM569.9 48c0-5.8-3.2-9.3-8.7-9.3-5.4 0-8.6 3.6-8.6 9.3v22.6c0 2.2-1.3 3.6-3.3 3.6s-3.3-1.4-3.3-3.6V36.5c0-2.2 1.3-3.6 3.3-3.6 2.1 0 3.3 1.4 3.3 3.6v1.2l.2.2c1.6-2 4.1-4.9 10.2-4.9 4 0 8.1 1.7 11.1 6.8 3-4.3 6.5-6.8 12.4-6.8 6.2 0 14 3.9 14 15.3v22.4c0 2.2-1.3 3.6-3.3 3.6s-3.3-1.4-3.3-3.6V48c0-5.8-3.2-9.3-8.7-9.3-5.4 0-8.6 3.6-8.6 9.3v22.6c0 2.2-1.3 3.6-3.3 3.6s-3.3-1.4-3.3-3.6V48h-.1z"/></g></svg>